<?xml version="1.0" encoding="UTF-8" standalone="no"?>
<!-- Created with Inkscape (http://www.inkscape.org/) -->

<svg
   xmlns:dc="http://purl.org/dc/elements/1.1/"
   xmlns:cc="http://creativecommons.org/ns#"
   xmlns:rdf="http://www.w3.org/1999/02/22-rdf-syntax-ns#"
   xmlns:svg="http://www.w3.org/2000/svg"
   xmlns="http://www.w3.org/2000/svg"
   xmlns:sodipodi="http://sodipodi.sourceforge.net/DTD/sodipodi-0.dtd"
   xmlns:inkscape="http://www.inkscape.org/namespaces/inkscape"
   id="svg3375"
   version="1.1"
   inkscape:version="0.91 r13725"
   xml:space="preserve"
   width="1488.15"
   height="1052.25"
   viewBox="0 0 1488.15 1052.25"
   sodipodi:docname="ルンバ.svg"><metadata
     id="metadata3381"><rdf:RDF><cc:Work
         rdf:about=""><dc:format>image/svg+xml</dc:format><dc:type
           rdf:resource="http://purl.org/dc/dcmitype/StillImage" /><dc:title></dc:title></cc:Work></rdf:RDF></metadata><defs
     id="defs3379" /><sodipodi:namedview
     pagecolor="#ffffff"
     bordercolor="#666666"
     borderopacity="1"
     objecttolerance="10"
     gridtolerance="10"
     guidetolerance="10"
     inkscape:pageopacity="0"
     inkscape:pageshadow="2"
     inkscape:window-width="1631"
     inkscape:window-height="1026"
     id="namedview3377"
     showgrid="false"
     inkscape:zoom="0.2242813"
     inkscape:cx="1595.3603"
     inkscape:cy="-524.79773"
     inkscape:window-x="49"
     inkscape:window-y="24"
     inkscape:window-maximized="1"
     inkscape:current-layer="g3385" /><g
     id="g3383"
     inkscape:groupmode="layer"
     inkscape:label="0797_001"
     transform="matrix(1.25,0,0,-1.25,0,1052.25)"><g
       id="g3385"
       transform="scale(1190.52,841.8)"><path
         style="fill:#1db71e;fill-opacity:0.52941165"
         d="m 0.32528692,0.02585203 c 0.0408802,0.007637 0.0353182,0.079467 0.0846543,0.0703013 0.0416193,-0.008152 0.037066,-0.0858034 0.0897365,-0.0679553 0.1212043,0.0514587 0.19530758,0.1742131 0.2290806,0.29673237 0.0458407,0.1706199 0.0255781,0.3626114 -0.0699581,0.5130409 -0.0451845,0.067881 -0.11088316,0.1263253 -0.1915005,0.14623899 -0.0290229,-0.00473 -0.0438615,-0.048205 -0.0798776,-0.036217 -0.0299055,0.00619 -0.0467305,0.050859 -0.0803387,0.027524 -0.11263605,-0.043549 -0.18599877,-0.1516193 -0.22276293,-0.2626833 -0.0556346,-0.1706961 -0.044177,-0.36665 0.0457682,-0.52368023 0.0422751,-0.0713254 0.10400936,-0.13606323 0.1839543,-0.1634711 0.001077,0.00268 0.0102622,-0.003506 0.0112439,1.6996e-4 z m 0.0708066,0.22537536 c -0.0666079,0.002312 -0.1188907,0.0565982 -0.14414321,0.11480721 -0.0424847,0.095078 -0.0375568,0.2120094 0.0162738,0.3016471 0.0335995,0.056145 0.10072381,0.1006243 0.16808905,0.079755 C 0.51230766,0.7241237 0.55639684,0.6459503 0.57182092,0.572229 0.58979352,0.484839 0.57428392,0.3863348 0.51923912,0.3152345 0.49071142,0.2778579 0.44495232,0.2490587 0.39609352,0.2512274 Z m 0.0478415,0.44750851 c 7.3865e-4,0.00199 -0.001068,4.161e-4 0,4.1e-6 z m -0.0380453,0.012586 c -8.4668e-4,1.789e-4 2.012e-5,-9.608e-4 0,0 z m 0.001305,0.00187 c 2.496e-5,0.00132 -0.001054,-8.45e-5 0,0 z m -0.2536714,-0.090182 c -0.0295773,0.00845 -0.0254312,0.046851 -0.0147032,0.069386 0.0338611,0.092744 0.099093,0.1809524 0.19338674,0.2113897 0.0101491,0.0024 0.0194904,0.00565 0.030644,0.00784 0.0100767,4.118e-4 0.0170109,0.00321 0.0264089,0.00225 0.008992,-7.95e-5 0.0222439,7.314e-4 0.0314458,-5.011e-4 0.009118,-0.00122 0.0152326,-0.00153 0.0249932,-0.00403 0.006371,0.00134 0.0182297,-0.0061 0.0203559,-0.00456 0.0121711,-0.00477 0.0235442,-0.00807 0.0362342,-0.014148 0.0227295,-0.011528 0.0472471,-0.02875 0.0651469,-0.046226 0.048434,-0.046245 0.0835221,-0.1074337 0.10246545,-0.1721051 0.0131689,-0.039822 -0.047074,-0.060987 -0.0511654,-0.014938 -0.006681,0.022566 -0.0219832,0.048429 -0.0299771,0.066796 -0.0327336,0.064885 -0.0834272,0.1301462 -0.157501,0.1479745 -0.0640277,0.015034 -0.12564708,-0.021923 -0.16494033,-0.069407 -0.0318043,-0.03708 -0.0538107,-0.080678 -0.0741537,-0.1246858 -0.0109412,-0.019312 -0.009803,-0.054743 -0.0386403,-0.055028 z m 0.50297745,0.085851 c -4.0558e-4,-1.938e-4 3.2901e-4,-0.00122 0,0 z m -0.038322,0.045776 c -0.001279,-9.45e-4 9.7741e-4,-9.477e-4 0,0 z m -0.0521734,0.068168 c -9.1403e-4,0.00113 -8.6472e-4,-0.00156 0,0 z m -0.0510229,0.016066 c -4.0558e-4,-1.937e-4 3.2901e-4,-0.00122 0,0 z m -0.043468,0.028766 c 0.006337,0.00526 -0.005883,-4.116e-4 0,0 z"
         id="path3433"
         inkscape:connector-curvature="0"
         sodipodi:nodetypes="ccccccccccccccccccccccccccccccccccccccccccccccccccccccc" /><ellipse
         style="fill:#1db71e;fill-opacity:0.52941165;stroke:#000000;stroke-width:0.00027625;stroke-miterlimit:4;stroke-dasharray:none;stroke-opacity:1"
         id="path4275"
         cx="0.60907131"
         cy="-0.47938839"
         transform="scale(1,-1)"
         rx="0.011807405"
         ry="0.016698685" /></g></g></svg>